<svg xmlns="http://www.w3.org/2000/svg" viewBox="0 0 200 240" width="200" height="240">
  <style>
    .pista { fill: none; stroke: #111111; stroke-width: 6; stroke-linecap: square; stroke-linejoin: miter; }
    .nodo { fill: #111111; }
  </style>
  <path class="pista" d="M 35,65 L 105,135 L 105,220" />
  <path class="pista" d="M 175,65 L 105,135" />
  <path class="pista" d="M 55,85 L 105,125 L 145,85" />
  <path class="pista" d="M 85,155 L 85,200" />
  <path class="pista" d="M 125,155 L 125,200" />
  <path class="pista" d="M 65,65 L 145,65" />
  <path class="pista" d="M 105,152 L 105,200" />
  <circle class="nodo" cx="175" cy="65" r="6" />
  <circle class="nodo" cx="55" cy="85" r="6" />
  <circle class="nodo" cx="145" cy="85" r="6" />
  <circle class="nodo" cx="85" cy="155" r="6" />
  <circle class="nodo" cx="85" cy="200" r="6" />
  <circle class="nodo" cx="125" cy="155" r="6" />
  <circle class="nodo" cx="125" cy="200" r="6" />
  <circle class="nodo" cx="65" cy="65" r="6" />
  <circle class="nodo" cx="145" cy="65" r="6" />
  <circle class="nodo" cx="105" cy="152" r="6" />
  <circle class="nodo" cx="105" cy="200" r="6" />
</svg>