<svg xmlns="http://www.w3.org/2000/svg" viewBox="0 0 200 240" width="200" height="240">
  <style>
    .pista { fill: none; stroke: #111111; stroke-width: 6; stroke-linecap: square; stroke-linejoin: miter; }
    .nodo { fill: #111111; }
  </style>
  <path class="pista" d="M 35,65 L 170,220" />
  <path class="pista" d="M 170,65 L 35,220" />
  <path class="pista" d="M 55,85 L 150,198" />
  <path class="pista" d="M 150,85 L 55,198" />
  <path class="pista" d="M 65,65 L 140,65" />
  <path class="pista" d="M 65,220 L 140,220" />
  <circle class="nodo" cx="35" cy="65" r="6" />
  <circle class="nodo" cx="170" cy="220" r="6" />
  <circle class="nodo" cx="170" cy="65" r="6" />
  <circle class="nodo" cx="35" cy="220" r="6" />
  <circle class="nodo" cx="55" cy="85" r="6" />
  <circle class="nodo" cx="150" cy="198" r="6" />
  <circle class="nodo" cx="150" cy="85" r="6" />
  <circle class="nodo" cx="55" cy="198" r="6" />
  <circle class="nodo" cx="65" cy="65" r="6" />
  <circle class="nodo" cx="140" cy="65" r="6" />
  <circle class="nodo" cx="65" cy="220" r="6" />
  <circle class="nodo" cx="140" cy="220" r="6" />
</svg>